# xmcd
#
# Track frame offsets:
#	150
#	14868
#	27894
#	43354
#	54931
#	63471
#	72589
#	83225
#	105063
#	122965
#	139554
#	162837
#	179589
#	195645
#	208574
#	224177
#	239822
#	250988
#	263704
#	275995
#	286060
#	298246
#	310641
#	327000
#
# Disc length: 4527 seconds
#
# Revision: 1
# Processed by: cddbd v1.5.2PL0 Copyright (c) Steve Scherf et al.
# Submitted via: audiograbber 1.83.01
#
DISCID=8011ad18
DTITLE=Country Super Best - Country Super Best CD 2
DYEAR=1900
DGENRE=
TTITLE0=Jeff Carson -  Handin'by A Thread
TTITLE1=The Cactus Brothers - Sixteen Tons
TTITLE2=BR5-49 - That's What I Get
TTITLE3=John Michael Montgomery - Sold
TTITLE4=Johnny Western - Rawhide
TTITLE5=The Dreailers - Ellen
TTITLE6=Red Simpson - Truck Drivin' Man
TTITLE7=Earl Scruggs And Friends - Foggy Mountain Breakdown
TTITLE8=The Tractors - Baby Likes To Rock It
TTITLE9=Vince Gill - Oklahoma Borderline
TTITLE10=Rodney Crowell - Preachin' To The Choir
TTITLE11=Confederate Railroad - Bill' Laundromat, Bar Adn Grill
TTITLE12=Bottle Rockets - Indianopolis
TTITLE13=John Michael Montgomery - Be My Baby Tonight
TTITLE14=Billy D. Hunter - Dealing With The Devil
TTITLE15=Hank Williams III - 7 Months, 39 Days
TTITLE16=Jeff Carson - Yeah Buddy
TTITLE17=Jeff Carson - Definite Possibilities
TTITLE18=Randy Travis - Heart Of Hearts
TTITLE19=Tim McGraw - You Can Take It With You (When You Go)
TTITLE20=John Michael Montgomery - Love Is Our Business
TTITLE21=The Derailers - Whatever Made You Change Your Mind
TTITLE22=Dwight Yoakam - Please, Please Baby
TTITLE23=The Mavericks - Watch Over Me
EXTD=
EXTT0=
EXTT1=
EXTT2=
EXTT3=
EXTT4=
EXTT5=
EXTT6=
EXTT7=
EXTT8=
EXTT9=
EXTT10=
EXTT11=
EXTT12=
EXTT13=
EXTT14=
EXTT15=
EXTT16=
EXTT17=
EXTT18=
EXTT19=
EXTT20=
EXTT21=
EXTT22=
EXTT23=
PLAYORDER=
